<svg id="Group_479" data-name="Group 479" xmlns="http://www.w3.org/2000/svg" width="29.99" height="24.373" viewBox="0 0 29.99 24.373">
  <g id="Group_394" data-name="Group 394">
    <path id="Path_676" data-name="Path 676" d="M9.432,24.373c11.317,0,17.506-9.376,17.506-17.506q0-.4-.018-.8A12.526,12.526,0,0,0,29.99,2.886a12.282,12.282,0,0,1-3.533.968A6.175,6.175,0,0,0,29.162.45a12.333,12.333,0,0,1-3.907,1.494A6.158,6.158,0,0,0,14.77,7.555,17.468,17.468,0,0,1,2.088,1.127a6.157,6.157,0,0,0,1.9,8.214,6.11,6.11,0,0,1-2.787-.77c0,.026,0,.051,0,.079A6.156,6.156,0,0,0,6.14,14.682a6.147,6.147,0,0,1-2.779.105A6.16,6.16,0,0,0,9.11,19.061a12.345,12.345,0,0,1-7.642,2.634A12.491,12.491,0,0,1,0,21.609a17.418,17.418,0,0,0,9.432,2.764" fill="#003e48"/>
  </g>
</svg>
