<svg xmlns="http://www.w3.org/2000/svg" width="23.105" height="25.011" viewBox="0 0 23.105 25.011">
  <g id="Group_454" data-name="Group 454" transform="translate(1 1)">
    <g id="Group_453" data-name="Group 453" transform="translate(0.5 0.5)">
      <path id="Path_848" data-name="Path 848" d="M10.553,22.105A11.553,11.553,0,0,1-1,10.553,11.553,11.553,0,0,1,10.553-1a11.553,11.553,0,0,1,7.47,20.367l-1.94-2.288a8.553,8.553,0,1,0-5.529,2.027c.26,0,.52-.012.773-.034l.269,2.988C11.253,22.09,10.9,22.105,10.553,22.105Z" transform="translate(-0.5 -0.5)" fill="#173d47"/>
      <path id="Path_849" data-name="Path 849" d="M9.044,22.253,12,20.05l-2.957-2.2" transform="translate(-0.227 0.055)" fill="#173d47"/>
      <path id="Path_849_-_Outline" data-name="Path 849 - Outline" d="M9.941,23.456,8.148,21.051l1.342-1-1.342-1,1.792-2.406,4.571,3.4Z" transform="translate(-0.227 0.055)" fill="#173d47"/>
    </g>
  </g>
</svg>
