<svg xmlns="http://www.w3.org/2000/svg" width="27" height="27" viewBox="0 0 27 27">
  <g id="Group_1395" data-name="Group 1395" transform="translate(-230.504 -3936.538)">
    <path id="iconmonstr-time-1" d="M12-1.5A13.5,13.5,0,0,1,25.5,12,13.5,13.5,0,0,1,12,25.5,13.5,13.5,0,0,1-1.5,12,13.5,13.5,0,0,1,12-1.5Zm0,24A10.5,10.5,0,1,0,1.5,12,10.512,10.512,0,0,0,12,22.5Z" transform="translate(232.004 3938.038)" fill="#003e48"/>
    <path id="iconmonstr-time-1-2" data-name="iconmonstr-time-1" d="M6.473-1.5A7.973,7.973,0,1,1-1.5,6.473,7.982,7.982,0,0,1,6.473-1.5Zm0,12.945A4.973,4.973,0,1,0,1.5,6.473,4.978,4.978,0,0,0,6.473,11.445Z" transform="translate(237.531 3943.565)" fill="#003e48"/>
  </g>
</svg>
