<svg xmlns="http://www.w3.org/2000/svg" width="28.893" height="28.89" viewBox="0 0 28.893 28.89">
  <g id="Group_505" data-name="Group 505" transform="translate(-111.906 -4092.342)">
    <g id="Group_506" data-name="Group 506" transform="translate(112.704 4093.138)">
      <g id="Group_507" data-name="Group 507">
        <path id="Path_872" data-name="Path 872" d="M6.246,24.792a4.608,4.608,0,0,1-3.28-1.359L.359,20.826a4.637,4.637,0,0,1,0-6.56L7.525,7.1,9.647,9.222,2.481,16.388a1.637,1.637,0,0,0,0,2.317l2.607,2.607a1.637,1.637,0,0,0,2.317,0l7.166-7.166,2.121,2.121L9.526,23.433a4.608,4.608,0,0,1-3.28,1.359Z" transform="translate(0.202 3.302)" fill="#fff"/>
        <path id="Path_873" data-name="Path 873" d="M16.267,16.691,14.146,14.57,21.312,7.4a1.637,1.637,0,0,0,0-2.317L18.7,2.48a1.64,1.64,0,0,0-2.317,0L9.222,9.646,7.1,7.524,14.266.358a4.644,4.644,0,0,1,6.56,0l2.607,2.607a4.637,4.637,0,0,1,0,6.56Z" transform="translate(3.302 0.202)" fill="#fff"/>
        <path id="Line_25" data-name="Line 25" d="M1.061,10.9-1.061,8.778,8.778-1.061,10.9,1.061Z" transform="translate(8.729 8.729)" fill="#fff"/>
      </g>
    </g>
  </g>
</svg>
