<svg xmlns="http://www.w3.org/2000/svg" width="23.108" height="25.011" viewBox="0 0 23.108 25.011">
  <g id="Group_454" data-name="Group 454" transform="translate(1 1)">
    <g id="Group_453" data-name="Group 453" transform="translate(0.5 0.5)">
      <path id="Path_848" data-name="Path 848" d="M10.553,22.1a11.552,11.552,0,1,1,7.47-2.738l-1.94-2.288a8.553,8.553,0,1,0-5.529,2.027c.26,0,.52-.012.773-.034L11.6,22.06C11.253,22.09,10.9,22.1,10.553,22.1Z" transform="translate(-0.5 -0.5)" fill="#fff"/>
      <path id="Path_849" data-name="Path 849" d="M9.044,22.253,12,20.05l-2.957-2.2" transform="translate(-0.227 0.055)" fill="#fff"/>
      <path id="Path_849_-_Outline" data-name="Path 849 - Outline" d="M9.941,23.456l-1.793-2.4,1.342-1-1.342-1L9.94,16.645l4.571,3.4Z" transform="translate(-0.227 0.055)" fill="#fff"/>
    </g>
  </g>
</svg>
