<svg xmlns="http://www.w3.org/2000/svg" width="22.18" height="22.18" viewBox="0 0 22.18 22.18">
  <path id="Icon_awesome-linkedin-in" data-name="Icon awesome-linkedin-in" d="M4.965,22.181H.366V7.372h4.6ZM2.663,5.352A2.676,2.676,0,1,1,5.326,2.664,2.686,2.686,0,0,1,2.663,5.352ZM22.175,22.181H17.587V14.972c0-1.718-.035-3.921-2.391-3.921-2.391,0-2.757,1.867-2.757,3.8v7.332H7.845V7.372h4.41v2.02h.064A4.832,4.832,0,0,1,16.671,7c4.654,0,5.509,3.065,5.509,7.045v8.134Z" transform="translate(0 -0.001)" fill="#003e48"/>
</svg>
