<svg xmlns="http://www.w3.org/2000/svg" width="12.74" height="12.74" viewBox="0 0 12.74 12.74">
  <path id="Icon_awesome-linkedin-in" data-name="Icon awesome-linkedin-in" d="M2.852,12.741H.21V4.235H2.852ZM1.53,3.075A1.537,1.537,0,1,1,3.059,1.53,1.543,1.543,0,0,1,1.53,3.075Zm11.208,9.666H10.1V8.6c0-.987-.02-2.252-1.373-2.252-1.373,0-1.584,1.072-1.584,2.181v4.212H4.506V4.235H7.04V5.4h.037a2.775,2.775,0,0,1,2.5-1.374c2.673,0,3.165,1.76,3.165,4.047v4.672Z" transform="translate(0 -0.001)" fill="#fff"/>
</svg>
