<svg xmlns="http://www.w3.org/2000/svg" xmlns:xlink="http://www.w3.org/1999/xlink" width="26.884" height="21.113" viewBox="0 0 26.884 21.113">
  <defs>
    <clipPath id="clip-path">
      <rect id="Rectangle_7719" data-name="Rectangle 7719" width="25.891" height="17.753" fill="none" stroke="#173d47" stroke-width="3"/>
    </clipPath>
  </defs>
  <g id="Group_547" data-name="Group 547" transform="translate(0.992 1.68)">
    <g id="Group_544" data-name="Group 544" transform="translate(0 -0.001)">
      <g id="Group_543" data-name="Group 543" clip-path="url(#clip-path)">
        <path id="Line_30" data-name="Line 30" d="M7.166,1.5H0v-3H7.166Z" transform="translate(18.726 8.877)" fill="#173d47"/>
      </g>
    </g>
    <path id="Line_31" data-name="Line 31" d="M5.282,5.069l-6.077-3.8L.795-1.272l6.077,3.8Z" transform="translate(18.129 13.096)" fill="#173d47"/>
    <path id="Line_32" data-name="Line 32" d="M.795,5.069-.795,2.525l6.077-3.8,1.59,2.544Z" transform="translate(18.129 0)" fill="#173d47"/>
    <g id="Group_546" data-name="Group 546" transform="translate(0.508 0.859)">
      <g id="Group_548" data-name="Group 548">
        <path id="Path_885" data-name="Path 885" d="M15.747,19.419,3.536,12.689V5.037l12.211-6.73Zm-9.211-8.5,6.211,3.423V3.385L6.536,6.809Z" transform="translate(-0.431 -0.846)" fill="#173d47"/>
        <rect id="Rectangle_7720" data-name="Rectangle 7720" width="4.605" height="5.881" transform="translate(0 5.077)" fill="#003e48"/>
        <path id="Rectangle_7720_-_Outline" data-name="Rectangle 7720 - Outline" d="M-1.5-1.5H6.105V7.381H-1.5Zm4.605,3H1.5V4.381H3.105Z" transform="translate(0 5.077)" fill="#173d47"/>
      </g>
    </g>
  </g>
</svg>
