<svg id="Group_434" data-name="Group 434" xmlns="http://www.w3.org/2000/svg" width="17.226" height="14" viewBox="0 0 17.226 14">
  <g id="Group_394" data-name="Group 394">
    <path id="Path_676" data-name="Path 676" d="M5.418,14A9.987,9.987,0,0,0,15.473,3.944q0-.23-.01-.457a7.2,7.2,0,0,0,1.763-1.83,7.055,7.055,0,0,1-2.03.556A3.547,3.547,0,0,0,16.751.259a7.084,7.084,0,0,1-2.244.858A3.537,3.537,0,0,0,8.484,4.34,10.034,10.034,0,0,1,1.2.647,3.537,3.537,0,0,0,2.293,5.366a3.509,3.509,0,0,1-1.6-.442c0,.015,0,.03,0,.045A3.536,3.536,0,0,0,3.527,8.433a3.531,3.531,0,0,1-1.6.061,3.538,3.538,0,0,0,3.3,2.455A7.091,7.091,0,0,1,.843,12.461,7.175,7.175,0,0,1,0,12.412,10,10,0,0,0,5.418,14" fill="#fff"/>
  </g>
</svg>
