<svg xmlns="http://www.w3.org/2000/svg" xmlns:xlink="http://www.w3.org/1999/xlink" width="267" height="96.895" viewBox="0 0 267 96.895">
  <defs>
    <clipPath id="clip-path">
      <rect id="Rectangle_7725" data-name="Rectangle 7725" width="158.146" height="80.49" fill="none"/>
    </clipPath>
  </defs>
  <g id="Group_560" data-name="Group 560" transform="translate(-312 -1095.657)">
    <g id="Group_555" data-name="Group 555" transform="translate(312 1112.062)">
      <path id="Path_888" data-name="Path 888" d="M0,80.622,17.469,84.99V76.255Z" transform="translate(0 -58.493)"/>
      <path id="Path_889" data-name="Path 889" d="M167.469,0,150,4.367l17.469,4.367Z" transform="translate(-115.061)"/>
      <path id="Path_890" data-name="Path 890" d="M75,66.24l34.939,8.735V57.506Z" transform="translate(-57.531 -44.111)"/>
      <path id="Path_891" data-name="Path 891" d="M245,23.73l34.939,8.735V15Z" transform="translate(-187.93 -11.503)"/>
      <path id="Path_892" data-name="Path 892" d="M245,123.1l17.469,4.367v-8.735Z" transform="translate(-187.93 -91.074)"/>
      <path id="Path_893" data-name="Path 893" d="M225.982,216.875l4.367,1.092v-2.183Z" transform="translate(-173.345 -165.522)"/>
      <g id="Group_554" data-name="Group 554">
        <g id="Group_553" data-name="Group 553" clip-path="url(#clip-path)">
          <path id="Path_894" data-name="Path 894" d="M75.767,224.238a1.965,1.965,0,0,0,2.026,1.439c1.02,0,1.761-.461,1.761-1.244,0-.573-.419-.992-1.286-1.3l-1.258-.433c-2.054-.685-2.4-1.928-2.4-2.753,0-1.719,1.453-2.781,3.242-2.781a3.188,3.188,0,0,1,3.242,2.236l-1.509.629a1.686,1.686,0,0,0-1.733-1.272c-.8,0-1.453.391-1.453,1.16,0,.335.1.839,1.16,1.216l1.258.461c1.9.6,2.5,1.8,2.516,2.767,0,1.887-1.607,2.893-3.494,2.893a3.478,3.478,0,0,1-3.689-2.655Z" transform="translate(-56.876 -166.583)"/>
          <path id="Path_895" data-name="Path 895" d="M117.047,236.537h-1.719v-1.188a2.362,2.362,0,0,1-2.278,1.342c-1.761,0-2.627-1.272-2.627-3.312v-3.913h1.719v3.9c0,1.146.447,1.817,1.37,1.817.8,0,1.817-.657,1.817-2.655v-3.06h1.719Z" transform="translate(-84.703 -176.018)"/>
          <path id="Path_896" data-name="Path 896" d="M145.186,233.782a1.478,1.478,0,0,0,1.509,1.02c.5,0,1.062-.181,1.062-.741,0-.363-.335-.573-.769-.755l-1.034-.391c-1.412-.531-1.775-1.327-1.775-1.97,0-1.314,1.118-2.138,2.585-2.138a2.433,2.433,0,0,1,2.474,1.579l-1.384.5a1.065,1.065,0,0,0-1.076-.727.829.829,0,0,0-.922.741c0,.391.349.587.741.727l1.048.377c1.509.5,1.8,1.411,1.8,2.026,0,1.4-1.3,2.152-2.767,2.152a2.771,2.771,0,0,1-2.851-1.831Z" transform="translate(-110.328 -175.512)"/>
          <path id="Path_897" data-name="Path 897" d="M173.173,223.252h2.11v1.314h-2.11v3.7c0,.433.182.769.685.769a.675.675,0,0,0,.7-.727,1.726,1.726,0,0,0-.1-.587h1.412a2.23,2.23,0,0,1,.153.8,1.971,1.971,0,0,1-2.236,1.957,2.131,2.131,0,0,1-2.334-2.446v-3.466h-1.1v-1.314h1.188l.308-1.887h1.327Z" transform="translate(-130.671 -169.804)"/>
          <path id="Path_898" data-name="Path 898" d="M204.669,228.96v7.072H202.95v-1.062a2.808,2.808,0,0,1-2.418,1.216,3.477,3.477,0,0,1-3.466-3.717,3.439,3.439,0,0,1,3.48-3.661,2.861,2.861,0,0,1,2.4,1.2V228.96Zm-3.787,5.786a2.04,2.04,0,0,0,2.11-2.194,2.127,2.127,0,0,0-2.152-2.306,2.05,2.05,0,0,0-2.04,2.236,2.091,2.091,0,0,0,2.082,2.264" transform="translate(-151.165 -175.511)"/>
          <rect id="Rectangle_7721" data-name="Rectangle 7721" width="1.719" height="7.071" transform="translate(55.275 53.448)"/>
          <path id="Path_899" data-name="Path 899" d="M252.2,228.96h1.719v1.188a2.382,2.382,0,0,1,2.292-1.342c1.761,0,2.613,1.272,2.613,3.312v3.913h-1.719v-3.9c0-1.23-.517-1.873-1.37-1.873-1.006,0-1.817.755-1.817,2.236v3.536H252.2Z" transform="translate(-193.457 -175.511)"/>
          <path id="Path_900" data-name="Path 900" d="M293.57,228.96v7.072h-1.719v-1.062a2.808,2.808,0,0,1-2.418,1.216,3.477,3.477,0,0,1-3.466-3.717,3.439,3.439,0,0,1,3.48-3.661,2.861,2.861,0,0,1,2.4,1.2V228.96Zm-3.787,5.786a2.04,2.04,0,0,0,2.11-2.194,2.127,2.127,0,0,0-2.152-2.306,2.05,2.05,0,0,0-2.04,2.236,2.091,2.091,0,0,0,2.082,2.264" transform="translate(-219.359 -175.511)"/>
          <path id="Path_901" data-name="Path 901" d="M330.227,226.7a2.809,2.809,0,0,1-2.418-1.216v1.062H326.09v-10.1h1.719v4.081a2.862,2.862,0,0,1,2.4-1.2,3.439,3.439,0,0,1,3.48,3.661,3.477,3.477,0,0,1-3.466,3.717m-.307-5.939a2.117,2.117,0,0,0-2.138,2.306,2.029,2.029,0,0,0,2.1,2.194A2.091,2.091,0,0,0,331.959,223a2.05,2.05,0,0,0-2.04-2.236" transform="translate(-250.135 -166.03)"/>
          <rect id="Rectangle_7722" data-name="Rectangle 7722" width="1.719" height="10.104" transform="translate(84.907 50.416)"/>
          <path id="Path_902" data-name="Path 902" d="M384.709,234.829a4.08,4.08,0,0,1-3.2,1.356c-2.544,0-4.067-1.649-4.067-3.662a3.726,3.726,0,0,1,3.871-3.717,3.582,3.582,0,0,1,3.717,3.927h-5.87c0,1.118.908,2,2.432,2a3.022,3.022,0,0,0,2.138-.866Zm-5.464-3.256h4.025a1.877,1.877,0,0,0-1.957-1.4,2.05,2.05,0,0,0-2.068,1.4" transform="translate(-289.526 -175.511)"/>
          <path id="Path_903" data-name="Path 903" d="M437.467,222.578a2.427,2.427,0,0,1,2.208,2.362c0,1.607-1.356,2.669-3.368,2.669h-4.025v-9.782h3.592c1.915,0,3.34.978,3.34,2.6a2.241,2.241,0,0,1-1.747,2.152m-2.18-.531c1.621,0,2.1-.783,2.1-1.523,0-.839-.713-1.258-1.509-1.258h-1.8v2.781Zm-1.216,1.3v2.837h2.236a1.364,1.364,0,0,0,1.537-1.286c0-.783-.5-1.551-2.292-1.551Z" transform="translate(-331.593 -167.09)"/>
          <rect id="Rectangle_7723" data-name="Rectangle 7723" width="1.719" height="10.104" transform="translate(109.56 50.416)"/>
          <path id="Path_904" data-name="Path 904" d="M491.556,236.537h-1.719v-1.188a2.362,2.362,0,0,1-2.278,1.342c-1.761,0-2.627-1.272-2.627-3.312v-3.913h1.719v3.9c0,1.146.447,1.817,1.37,1.817.8,0,1.817-.657,1.817-2.655v-3.06h1.719Z" transform="translate(-371.979 -176.018)"/>
          <path id="Path_905" data-name="Path 905" d="M526.219,234.829a4.079,4.079,0,0,1-3.2,1.356c-2.544,0-4.067-1.649-4.067-3.662a3.726,3.726,0,0,1,3.871-3.717,3.582,3.582,0,0,1,3.718,3.927h-5.87c0,1.118.908,2,2.432,2a3.021,3.021,0,0,0,2.138-.866Zm-5.464-3.256h4.025a1.877,1.877,0,0,0-1.957-1.4,2.05,2.05,0,0,0-2.068,1.4" transform="translate(-398.075 -175.511)"/>
          <path id="Path_906" data-name="Path 906" d="M77.746,299.609v-9.782H84.1v1.439h-4.57V294.1h3.983v1.425H79.535v2.655H84.1v1.425Z" transform="translate(-59.637 -222.319)"/>
          <path id="Path_907" data-name="Path 907" d="M112.364,300.806a4.483,4.483,0,0,1,2.725.95l-.8,1.23a2.965,2.965,0,0,0-1.845-.643,2.159,2.159,0,1,0,0,4.3,3.06,3.06,0,0,0,1.845-.643l.8,1.216a4.426,4.426,0,0,1-2.725.964,3.7,3.7,0,1,1,0-7.379" transform="translate(-83.136 -230.741)"/>
          <path id="Path_908" data-name="Path 908" d="M142.906,300.806a3.692,3.692,0,1,1-3.829,3.689,3.811,3.811,0,0,1,3.829-3.689m0,5.911a2.226,2.226,0,1,0-2.1-2.222,2.135,2.135,0,0,0,2.1,2.222" transform="translate(-106.682 -230.741)"/>
          <path id="Path_909" data-name="Path 909" d="M177.513,300.96h1.719v1.188a2.382,2.382,0,0,1,2.292-1.342c1.761,0,2.613,1.272,2.613,3.312v3.913h-1.719v-3.9c0-1.23-.517-1.873-1.37-1.873-1.006,0-1.817.755-1.817,2.236v3.536h-1.719Z" transform="translate(-136.166 -230.741)"/>
          <path id="Path_910" data-name="Path 910" d="M214.8,300.806a3.692,3.692,0,1,1-3.829,3.689,3.811,3.811,0,0,1,3.829-3.689m0,5.911a2.226,2.226,0,1,0-2.1-2.222,2.135,2.135,0,0,0,2.1,2.222" transform="translate(-161.833 -230.741)"/>
          <path id="Path_911" data-name="Path 911" d="M254.036,304.132c0-1.23-.489-1.873-1.314-1.873-.782,0-1.551.6-1.593,2.152v3.619h-1.719V300.96h1.719v1.188a2.2,2.2,0,0,1,2.082-1.341,2.293,2.293,0,0,1,2.208,1.327,2.375,2.375,0,0,1,2.32-1.327c1.831,0,2.628,1.272,2.628,3.312v3.913h-1.719v-3.9c0-1.23-.489-1.873-1.314-1.873-.783,0-1.551.6-1.593,2.152v3.619h-1.705Z" transform="translate(-191.317 -230.741)"/>
          <path id="Path_912" data-name="Path 912" d="M304.253,301.466h1.928l-4.388,10.272H300.1l1.439-3.619-3-6.652h1.943l1.928,4.849Z" transform="translate(-229.001 -231.247)"/>
          <path id="Path_913" data-name="Path 913" d="M352.777,299.609v-9.782h4.109a2.969,2.969,0,0,1,3.061,3.144,2.918,2.918,0,0,1-3.061,3.061h-2.32v3.577Zm3.829-4.989a1.686,1.686,0,0,0,0-3.354h-2.04v3.354Z" transform="translate(-270.606 -222.319)"/>
          <path id="Path_914" data-name="Path 914" d="M393.474,300.96v7.071h-1.719v-1.062a2.809,2.809,0,0,1-2.418,1.216,3.477,3.477,0,0,1-3.466-3.717,3.439,3.439,0,0,1,3.48-3.661,2.861,2.861,0,0,1,2.4,1.2V300.96Zm-3.787,5.786a2.04,2.04,0,0,0,2.11-2.194,2.127,2.127,0,0,0-2.152-2.306,2.05,2.05,0,0,0-2.04,2.236,2.091,2.091,0,0,0,2.082,2.264" transform="translate(-295.993 -230.741)"/>
          <path id="Path_915" data-name="Path 915" d="M427.715,302.525a1.921,1.921,0,0,1,2.515-1.621v1.691a2.536,2.536,0,0,0-.811-.14c-.629,0-1.677.349-1.677,2.306v3.27h-1.719V300.96h1.691Z" transform="translate(-326.792 -230.741)"/>
          <path id="Path_916" data-name="Path 916" d="M449.211,295.253h2.11v1.314h-2.11v3.7c0,.433.182.769.685.769a.675.675,0,0,0,.7-.727,1.724,1.724,0,0,0-.1-.587h1.412a2.235,2.235,0,0,1,.153.8,1.971,1.971,0,0,1-2.236,1.957,2.131,2.131,0,0,1-2.334-2.446v-3.466h-1.1v-1.314h1.188l.308-1.887h1.327Z" transform="translate(-342.413 -225.034)"/>
          <path id="Path_917" data-name="Path 917" d="M475.169,300.96h1.719v1.188a2.382,2.382,0,0,1,2.292-1.342c1.761,0,2.613,1.272,2.613,3.312v3.913h-1.719v-3.9c0-1.23-.517-1.873-1.37-1.873-1.006,0-1.817.755-1.817,2.236v3.536h-1.719Z" transform="translate(-364.49 -230.741)"/>
          <path id="Path_918" data-name="Path 918" d="M516.024,306.829a4.079,4.079,0,0,1-3.2,1.356c-2.544,0-4.067-1.649-4.067-3.662a3.726,3.726,0,0,1,3.871-3.717,3.582,3.582,0,0,1,3.718,3.927h-5.87c0,1.118.908,2,2.431,2a3.022,3.022,0,0,0,2.138-.866Zm-5.464-3.256h4.025a1.876,1.876,0,0,0-1.957-1.4,2.05,2.05,0,0,0-2.068,1.4" transform="translate(-390.255 -230.741)"/>
          <path id="Path_919" data-name="Path 919" d="M548.3,302.525a1.921,1.921,0,0,1,2.515-1.621v1.691a2.536,2.536,0,0,0-.811-.14c-.629,0-1.677.349-1.677,2.306v3.27h-1.719V300.96H548.3Z" transform="translate(-419.292 -230.741)"/>
          <path id="Path_920" data-name="Path 920" d="M567.687,305.782a1.478,1.478,0,0,0,1.509,1.02c.5,0,1.062-.181,1.062-.741,0-.363-.335-.573-.769-.754l-1.034-.392c-1.412-.531-1.775-1.327-1.775-1.97,0-1.313,1.118-2.138,2.585-2.138a2.433,2.433,0,0,1,2.474,1.579l-1.384.5a1.065,1.065,0,0,0-1.076-.727.829.829,0,0,0-.922.741c0,.391.349.587.741.727l1.048.377c1.509.5,1.8,1.411,1.8,2.026,0,1.4-1.3,2.152-2.767,2.152a2.771,2.771,0,0,1-2.851-1.831Z" transform="translate(-434.418 -230.742)"/>
          <path id="Path_921" data-name="Path 921" d="M595.888,288.447h1.719v4.22a2.363,2.363,0,0,1,2.278-1.342c1.761,0,2.627,1.272,2.627,3.312v3.913h-1.719v-3.9c0-1.23-.531-1.873-1.384-1.873s-1.8.629-1.8,2.236v3.536h-1.719Z" transform="translate(-457.091 -221.26)"/>
          <rect id="Rectangle_7724" data-name="Rectangle 7724" width="1.719" height="7.071" transform="translate(147.075 70.219)"/>
          <path id="Path_922" data-name="Path 922" d="M646.317,311.231V300.96h1.719v1.062a2.809,2.809,0,0,1,2.418-1.216,3.477,3.477,0,0,1,3.466,3.717,3.439,3.439,0,0,1-3.48,3.662,2.861,2.861,0,0,1-2.4-1.2v4.248Zm3.787-8.986a2.04,2.04,0,0,0-2.11,2.194,2.127,2.127,0,0,0,2.152,2.306,2.05,2.05,0,0,0,2.04-2.236,2.091,2.091,0,0,0-2.082-2.264" transform="translate(-495.774 -230.741)"/>
          <path id="Path_923" data-name="Path 923" d="M620.06,288.881l4.367,1.092V287.79Z" transform="translate(-475.633 -220.756)"/>
        </g>
      </g>
    </g>
    <g id="Group_558" data-name="Group 558" transform="translate(514.492 1095.287)">
      <g id="Group_557" data-name="Group 557" transform="translate(1.87 1.87)">
        <g id="Group_559" data-name="Group 559" transform="translate(0 0)">
          <rect id="Rectangle_7726" data-name="Rectangle 7726" width="61.138" height="83.525" transform="translate(0 10)" fill="none" stroke="#173d47" stroke-miterlimit="10" stroke-width="3"/>
          <rect id="Rectangle_7727" data-name="Rectangle 7727" width="14.207" height="19.411" transform="translate(35.309)" fill="#173d47" stroke="#173d47" stroke-miterlimit="10" stroke-width="3"/>
        </g>
      </g>
      <line id="Line_35" data-name="Line 35" x2="30.564" transform="translate(22.101 38.058)" fill="none" stroke="#173d47" stroke-miterlimit="10" stroke-width="3"/>
      <line id="Line_36" data-name="Line 36" x2="30.564" transform="translate(22.101 53.632)" fill="none" stroke="#173d47" stroke-miterlimit="10" stroke-width="3"/>
      <line id="Line_37" data-name="Line 37" x2="30.564" transform="translate(22.101 69.207)" fill="none" stroke="#173d47" stroke-miterlimit="10" stroke-width="3"/>
    </g>
  </g>
</svg>
