<svg xmlns="http://www.w3.org/2000/svg" width="220.472" height="104.491" viewBox="0 0 220.472 104.491">
  <g id="Group_563" data-name="Group 563" transform="translate(-1185.264 -1095.657)">
    <g id="Group_557" data-name="Group 557" transform="translate(1284.333 1097.157)">
      <g id="Group_559" data-name="Group 559" transform="translate(0 0)">
        <path id="Path_924" data-name="Path 924" d="M-1.5-1.5H121.4V85.025H-1.5Zm119.9,3H1.5V82.025H118.4Z" transform="translate(0 10)" fill="#173d47"/>
        <rect id="Rectangle_7727" data-name="Rectangle 7727" width="7.889" height="19.411" transform="translate(69.657 93.602) rotate(90)" fill="#173d47"/>
        <path id="Rectangle_7727_-_Outline" data-name="Rectangle 7727 - Outline" d="M-1.5-1.5H9.389V20.911H-1.5Zm7.889,3H1.5V17.911H6.389Z" transform="translate(69.657 93.602) rotate(90)" fill="#173d47"/>
      </g>
    </g>
    <path id="Line_35" data-name="Line 35" d="M85.227,1.5H0v-3H85.227Z" transform="translate(1301.671 1133.344)" fill="#173d47"/>
    <path id="Line_36" data-name="Line 36" d="M85.227,1.5H0v-3H85.227Z" transform="translate(1301.671 1148.919)" fill="#173d47"/>
    <path id="Line_37" data-name="Line 37" d="M85.227,1.5H0v-3H85.227Z" transform="translate(1301.671 1164.494)" fill="#173d47"/>
    <g id="Group_562" data-name="Group 562" transform="translate(1184.894 1095.287)">
      <g id="Group_557-2" data-name="Group 557" transform="translate(1.87 1.87)">
        <g id="Group_559-2" data-name="Group 559" transform="translate(0 0)">
          <path id="Rectangle_7726" data-name="Rectangle 7726" d="M-1.5-1.5H62.638V85.025H-1.5Zm61.138,3H1.5V82.025H59.638Z" transform="translate(0 10)" fill="#173d47"/>
          <rect id="Rectangle_7727-2" data-name="Rectangle 7727" width="14.207" height="19.411" transform="translate(35.309)" fill="#173d47"/>
          <path id="Rectangle_7727_-_Outline-2" data-name="Rectangle 7727 - Outline" d="M-1.5-1.5H15.707V20.911H-1.5Zm14.207,3H1.5V17.911H12.707Z" transform="translate(35.309)" fill="#173d47"/>
        </g>
      </g>
      <path id="Line_35-2" data-name="Line 35" d="M30.564,1.5H0v-3H30.564Z" transform="translate(22.101 38.058)" fill="#173d47"/>
      <path id="Line_36-2" data-name="Line 36" d="M30.564,1.5H0v-3H30.564Z" transform="translate(22.101 53.632)" fill="#173d47"/>
      <path id="Line_37-2" data-name="Line 37" d="M30.564,1.5H0v-3H30.564Z" transform="translate(22.101 69.207)" fill="#173d47"/>
    </g>
  </g>
</svg>
