<svg xmlns="http://www.w3.org/2000/svg" width="18.83" height="25.805" viewBox="0 0 18.83 25.805">
  <g id="Group_1397" data-name="Group 1397" transform="translate(-234.919 -1698.854)">
    <path id="Path_1407" data-name="Path 1407" d="M19.129,79.556H8.858a4.286,4.286,0,0,1-4.281-4.281V63.749a5.517,5.517,0,0,1,1.078-3.265A2.165,2.165,0,0,0,6.078,59.2V57.119H21.866v2.057a2.162,2.162,0,0,0,.441,1.3,5.418,5.418,0,0,1,1.1,3.267V75.275a4.286,4.286,0,0,1-4.278,4.281ZM9,60.119a5.185,5.185,0,0,1-.93,2.152,2.5,2.5,0,0,0-.488,1.478V75.275a1.283,1.283,0,0,0,1.281,1.281h10.27a1.283,1.283,0,0,0,1.281-1.281V63.747a2.4,2.4,0,0,0-.489-1.448,5.179,5.179,0,0,1-.967-2.18Z" transform="translate(230.342 1645.103)" fill="#fff"/>
    <path id="Path_1408" data-name="Path 1408" d="M27.47,10.944v-3a.553.553,0,0,0-.552.552v-.92H15.042V8.5a.553.553,0,0,0-.552-.552v3A2.45,2.45,0,0,1,12.042,8.5V7.025A2.45,2.45,0,0,1,14.49,4.577H27.47a2.45,2.45,0,0,1,2.448,2.448V8.5A2.45,2.45,0,0,1,27.47,10.944Z" transform="translate(223.355 1694.277)" fill="#fff"/>
    <path id="Path_1415" data-name="Path 1415" d="M8.045,8.96a2.436,2.436,0,0,0,1.87-.83l.83.8a3.108,3.108,0,0,1-1.2.87,4.031,4.031,0,0,1-1.575.3,4.048,4.048,0,0,1-1.61-.32,3.515,3.515,0,0,1-1.26-.9,3.324,3.324,0,0,1-.725-1.34H3.235v-.7h1.01q-.01-.11-.01-.34t.01-.34H3.235v-.7h1.14A3.324,3.324,0,0,1,5.1,4.12a3.515,3.515,0,0,1,1.26-.9A4.048,4.048,0,0,1,7.975,2.9a4.031,4.031,0,0,1,1.575.3,3.108,3.108,0,0,1,1.2.87l-.83.79a2.45,2.45,0,0,0-1.87-.82,2.586,2.586,0,0,0-1.4.38A2.286,2.286,0,0,0,5.75,5.46H8.62v.7H5.555q-.02.22-.02.34t.02.34h3.06v.7H5.745A2.286,2.286,0,0,0,6.64,8.58,2.586,2.586,0,0,0,8.045,8.96Z" transform="translate(237 1708)" fill="#fff"/>
  </g>
</svg>
