<svg xmlns="http://www.w3.org/2000/svg" width="24.373" height="24.373" viewBox="0 0 24.373 24.373">
  <path id="Path_696" data-name="Path 696" d="M12.187,2.167a37.367,37.367,0,0,1,4.875.135,6.28,6.28,0,0,1,2.3.406,4.755,4.755,0,0,1,2.3,2.3,6.28,6.28,0,0,1,.406,2.3c0,1.219.135,1.625.135,4.875a37.366,37.366,0,0,1-.135,4.875,6.28,6.28,0,0,1-.406,2.3,4.755,4.755,0,0,1-2.3,2.3,6.28,6.28,0,0,1-2.3.406c-1.219,0-1.625.135-4.875.135a37.366,37.366,0,0,1-4.875-.135,6.28,6.28,0,0,1-2.3-.406,4.755,4.755,0,0,1-2.3-2.3,6.28,6.28,0,0,1-.406-2.3c0-1.219-.135-1.625-.135-4.875A37.367,37.367,0,0,1,2.3,7.312a6.28,6.28,0,0,1,.406-2.3,4.863,4.863,0,0,1,.948-1.354A2.289,2.289,0,0,1,5.01,2.708a6.28,6.28,0,0,1,2.3-.406,37.367,37.367,0,0,1,4.875-.135m0-2.167a40.009,40.009,0,0,0-5.01.135A8.359,8.359,0,0,0,4.2.677,5.3,5.3,0,0,0,2.031,2.031,5.3,5.3,0,0,0,.677,4.2,6.17,6.17,0,0,0,.135,7.177,40.009,40.009,0,0,0,0,12.187,40.009,40.009,0,0,0,.135,17.2a8.359,8.359,0,0,0,.542,2.979,5.3,5.3,0,0,0,1.354,2.167A5.3,5.3,0,0,0,4.2,23.7a8.359,8.359,0,0,0,2.979.542,40.009,40.009,0,0,0,5.01.135,40.009,40.009,0,0,0,5.01-.135,8.36,8.36,0,0,0,2.979-.542A5.681,5.681,0,0,0,23.7,20.176a8.359,8.359,0,0,0,.542-2.979c0-1.354.135-1.76.135-5.01a40.009,40.009,0,0,0-.135-5.01A8.36,8.36,0,0,0,23.7,4.2a5.3,5.3,0,0,0-1.354-2.167A5.3,5.3,0,0,0,20.176.677,8.359,8.359,0,0,0,17.2.135,40.009,40.009,0,0,0,12.187,0m0,5.958a6.128,6.128,0,0,0-6.229,6.229,6.229,6.229,0,1,0,6.229-6.229m0,10.291a3.99,3.99,0,0,1-4.062-4.062,3.99,3.99,0,0,1,4.062-4.062,3.99,3.99,0,0,1,4.062,4.062,3.99,3.99,0,0,1-4.062,4.062M18.686,4.2a1.489,1.489,0,1,0,1.489,1.489A1.5,1.5,0,0,0,18.686,4.2" fill="#003e48" fill-rule="evenodd"/>
</svg>
