<svg id="Group_1394" data-name="Group 1394" xmlns="http://www.w3.org/2000/svg" width="162" height="162" viewBox="0 0 162 162">
  <g id="Group_1371" data-name="Group 1371" transform="translate(21 53.06)">
    <path id="Path_1402" data-name="Path 1402" d="M42.839,58.317,23.758,30.626l15.7-5.564L46.808,4.675l31.754-.086.961,40.571-9.664.521-.127.088A30.729,30.729,0,0,1,53.17,51.2ZM28.448,32.147l15.159,22,8.6-5.928.454-.007A27.743,27.743,0,0,0,68.029,43.3l.824-.568,7.6-.41L75.632,7.6l-26.715.072L41.8,27.415Z" transform="translate(-22.075 -5.153)" fill="#003e48"/>
    <path id="Path_1403" data-name="Path 1403" d="M219.484,100.14,216.34,80.678l-6.68-9.693,2.47-1.7,7.063,10.25,2.826,17.492,3.547-.158.134,3Z" transform="translate(-178.353 -59.311)" fill="#003e48"/>
    <path id="Line_43" data-name="Line 43" d="M1.3,15.448-1.3,13.937,7.275-.756,9.866.756Z" transform="translate(28.285 18.257)" fill="#003e48"/>
    <path id="Line_44" data-name="Line 44" d="M1.055,18.275-1.485.209,1.485-.209,4.026,17.857Z" transform="translate(43.304 1.661)" fill="#003e48"/>
    <path id="Line_45" data-name="Line 45" d="M.039,1.865l-.077-3L14.147-1.5l.077,3Z" transform="translate(41.02 29.604)" fill="#003e48"/>
    <path id="Line_46" data-name="Line 46" d="M.047,1.975l-.094-3L15.176-1.5l.094,3Z" transform="translate(39.414 20.318)" fill="#003e48"/>
    <path id="Line_47" data-name="Line 47" d="M.039,1.781l-.077-3L10.885-1.5l.077,3Z" transform="translate(44.529 10.346)" fill="#003e48"/>
    <rect id="Rectangle_8141" data-name="Rectangle 8141" width="10.819" height="35.129" transform="matrix(0.847, -0.532, 0.532, 0.847, 0, 26.07)" fill="#3cc"/>
    <path id="Path_1404" data-name="Path 1404" d="M454.15,58.317,443.819,51.2a30.729,30.729,0,0,1-16.561-5.43l-.127-.088-9.664-.521.961-40.571,31.754.086,7.351,20.387,15.7,5.564Zm-33.615-16,7.6.41.824.568a27.743,27.743,0,0,0,15.364,4.911l.454.007,8.6,5.928,15.159-22-13.349-4.731-7.12-19.746L421.357,7.6Z" transform="translate(-354.346 -5.153)" fill="#003e48"/>
    <path id="Path_1405" data-name="Path 1405" d="M481.1,100.14l-6.216-.277.134-3,3.547.158,2.826-17.492,7.063-10.25,2.47,1.7-6.68,9.693Z" transform="translate(-401.662 -59.311)" fill="#003e48"/>
    <path id="Line_48" data-name="Line 48" d="M7.275,15.448-1.3.756,1.3-.756l8.57,14.692Z" transform="translate(83.712 18.257)" fill="#003e48"/>
    <path id="Line_49" data-name="Line 49" d="M1.485,18.275l-2.971-.418L1.055-.209,4.026.209Z" transform="translate(74.723 1.661)" fill="#003e48"/>
    <path id="Line_50" data-name="Line 50" d="M14.147,1.865-.039,1.5l.077-3,14.186.365Z" transform="translate(65.362 29.604)" fill="#003e48"/>
    <path id="Line_51" data-name="Line 51" d="M15.176,1.975-.047,1.5l.094-3,15.223.476Z" transform="translate(65.931 20.318)" fill="#003e48"/>
    <path id="Line_52" data-name="Line 52" d="M10.885,1.781-.039,1.5l.077-3,10.924.281Z" transform="translate(65.115 10.346)" fill="#003e48"/>
    <rect id="Rectangle_8142" data-name="Rectangle 8142" width="35.129" height="10.819" transform="matrix(0.532, -0.847, 0.847, 0.532, 92.728, 50.071)" fill="#3cc"/>
  </g>
  <g id="Path_1414" data-name="Path 1414" fill="none">
    <path d="M81,0A81,81,0,1,1,0,81,81,81,0,0,1,81,0Z" stroke="none"/>
    <path d="M 81 3 C 70.46875 3 60.25408935546875 5.0618896484375 50.63979339599609 9.128387451171875 C 46.01861572265625 11.08297729492188 41.56127166748047 13.50238037109375 37.39154815673828 16.31938171386719 C 33.26066589355469 19.11015319824219 29.37606811523438 22.31527709960938 25.84565734863281 25.84565734863281 C 22.31527709960938 29.37606811523438 19.11015319824219 33.26066589355469 16.31938171386719 37.39154815673828 C 13.50238037109375 41.56127166748047 11.08297729492188 46.01861572265625 9.128387451171875 50.63979339599609 C 5.0618896484375 60.25408935546875 3 70.46875 3 81 C 3 91.53125 5.0618896484375 101.7459106445312 9.128387451171875 111.3601989746094 C 11.08297729492188 115.9813842773438 13.50238037109375 120.4387283325195 16.31938171386719 124.6084594726562 C 19.11015319824219 128.7393493652344 22.31527709960938 132.6239318847656 25.84565734863281 136.1543426513672 C 29.37606811523438 139.6847229003906 33.26066589355469 142.8898468017578 37.39154815673828 145.6806182861328 C 41.56127166748047 148.4976196289062 46.01861572265625 150.9170227050781 50.63979339599609 152.8716125488281 C 60.25408935546875 156.9381103515625 70.46875 159 81 159 C 91.53125 159 101.7459106445312 156.9381103515625 111.3601989746094 152.8716125488281 C 115.9813842773438 150.9170227050781 120.4387283325195 148.4976196289062 124.6084594726562 145.6806182861328 C 128.7393493652344 142.8898468017578 132.6239318847656 139.6847229003906 136.1543426513672 136.1543426513672 C 139.6847229003906 132.6239318847656 142.8898468017578 128.7393493652344 145.6806182861328 124.6084594726562 C 148.4976196289062 120.4387283325195 150.9170227050781 115.9813842773438 152.8716125488281 111.3601989746094 C 156.9381103515625 101.7459106445312 159 91.53125 159 81 C 159 70.46875 156.9381103515625 60.25408935546875 152.8716125488281 50.63979339599609 C 150.9170227050781 46.01861572265625 148.4976196289062 41.56127166748047 145.6806182861328 37.39154815673828 C 142.8898468017578 33.26066589355469 139.6847229003906 29.37606811523438 136.1543426513672 25.84565734863281 C 132.6239318847656 22.31527709960938 128.7393493652344 19.11015319824219 124.6084594726562 16.31938171386719 C 120.4387283325195 13.50238037109375 115.9813842773438 11.08297729492188 111.3601989746094 9.128387451171875 C 101.7459106445312 5.0618896484375 91.53125 3 81 3 M 81 0 C 125.7350692749023 0 162 36.26493072509766 162 81 C 162 125.7350692749023 125.7350692749023 162 81 162 C 36.26493072509766 162 0 125.7350692749023 0 81 C 0 36.26493072509766 36.26493072509766 0 81 0 Z" stroke="none" fill="#003f49"/>
  </g>
</svg>
