<svg xmlns="http://www.w3.org/2000/svg" width="331.833" height="48.409" viewBox="0 0 331.833 48.409">
  <g id="Group_1394" data-name="Group 1394" transform="translate(-140 -75)">
    <path id="Path_40" data-name="Path 40" d="M0,82.283l23.239,5.81V76.473Z" transform="translate(140 22.155)" fill="#ffd100"/>
    <path id="Path_41" data-name="Path 41" d="M173.667,0l-23.239,5.81,23.239,5.81Z" transform="translate(36.051 75.001)" fill="#ffd100"/>
    <path id="Path_42" data-name="Path 42" d="M75.214,69.289l46.478,11.62V57.67Z" transform="translate(88.025 35.149)" fill="#ffd100"/>
    <path id="Path_43" data-name="Path 43" d="M245.7,26.658l46.478,11.62V15.039Z" transform="translate(-29.781 64.608)" fill="#ffd100"/>
    <path id="Path_44" data-name="Path 44" d="M245.7,124.877l23.239,5.81v-11.62Z" transform="translate(-29.781 -7.278)" fill="#ffd100"/>
    <path id="Path_45" data-name="Path 45" d="M621.011,22.041l5.793,1.448v-2.9Z" transform="translate(-289.135 60.77)" fill="#fed130"/>
    <path id="Path_46" data-name="Path 46" d="M471.325,31.356a2.606,2.606,0,0,0,2.688,1.909c1.353,0,2.336-.612,2.336-1.65,0-.76-.556-1.316-1.706-1.724l-1.668-.575c-2.725-.908-3.189-2.558-3.189-3.652,0-2.28,1.928-3.689,4.3-3.689a4.229,4.229,0,0,1,4.3,2.966l-2,.834a2.236,2.236,0,0,0-2.3-1.687c-1.056,0-1.928.519-1.928,1.539,0,.445.13,1.112,1.539,1.613l1.668.611c2.521.8,3.318,2.391,3.337,3.671,0,2.5-2.132,3.837-4.635,3.837-2.539,0-4.542-1.427-4.894-3.522Z" transform="translate(-184.213 59.814)" fill="#fff"/>
    <path id="Path_47" data-name="Path 47" d="M514.239,43.655h-2.28V42.079a3.134,3.134,0,0,1-3.021,1.78c-2.336,0-3.485-1.687-3.485-4.394v-5.19h2.28v5.172c0,1.52.593,2.41,1.817,2.41,1.057,0,2.41-.871,2.41-3.522v-4.06h2.28Z" transform="translate(-209.281 51.315)" fill="#fff"/>
    <path id="Path_48" data-name="Path 48" d="M540.657,40.215a1.961,1.961,0,0,0,2,1.353c.668,0,1.409-.241,1.409-.983,0-.482-.445-.76-1.02-1l-1.372-.519c-1.872-.7-2.354-1.761-2.354-2.614,0-1.743,1.483-2.836,3.429-2.836a3.227,3.227,0,0,1,3.281,2.095l-1.835.667a1.412,1.412,0,0,0-1.427-.964,1.1,1.1,0,0,0-1.224.983c0,.519.463.779.983.964l1.39.5c2,.667,2.391,1.872,2.391,2.688,0,1.854-1.724,2.855-3.67,2.855a3.676,3.676,0,0,1-3.782-2.429Z" transform="translate(-232.365 51.771)" fill="#fff"/>
    <path id="Path_49" data-name="Path 49" d="M569.124,28.677h2.8V30.42h-2.8v4.912c0,.575.241,1.02.908,1.02a.9.9,0,0,0,.927-.964,2.289,2.289,0,0,0-.129-.779H572.7a2.96,2.96,0,0,1,.2,1.057c0,1.372-.945,2.6-2.966,2.6-1.557,0-3.1-.668-3.1-3.244v-4.6h-1.464V28.677h1.575l.408-2.5h1.761Z" transform="translate(-250.691 56.913)" fill="#fff"/>
    <path id="Path_50" data-name="Path 50" d="M602.181,33.819V43.2H599.9V41.79a3.725,3.725,0,0,1-3.207,1.613,4.612,4.612,0,0,1-4.6-4.931,4.561,4.561,0,0,1,4.616-4.857,3.8,3.8,0,0,1,3.188,1.594v-1.39Zm-5.024,7.675a2.706,2.706,0,0,0,2.8-2.911,2.822,2.822,0,0,0-2.855-3.059,2.719,2.719,0,0,0-2.706,2.966,2.774,2.774,0,0,0,2.762,3" transform="translate(-269.154 51.771)" fill="#fff"/>
    <rect id="Rectangle_2" data-name="Rectangle 2" width="2.28" height="9.38" transform="translate(335.375 85.59)" fill="#fff"/>
    <path id="Path_51" data-name="Path 51" d="M647.23,33.819h2.28v1.576a3.16,3.16,0,0,1,3.04-1.78c2.336,0,3.466,1.687,3.466,4.393V43.2h-2.28V38.027c0-1.631-.686-2.484-1.817-2.484-1.335,0-2.41,1-2.41,2.966V43.2h-2.28Z" transform="translate(-307.252 51.771)" fill="#fff"/>
    <path id="Path_52" data-name="Path 52" d="M691.082,33.819V43.2H688.8V41.79a3.725,3.725,0,0,1-3.207,1.613,4.612,4.612,0,0,1-4.6-4.931,4.561,4.561,0,0,1,4.616-4.857,3.8,3.8,0,0,1,3.188,1.594v-1.39Zm-5.024,7.675a2.706,2.706,0,0,0,2.8-2.911A2.822,2.822,0,0,0,686,35.524,2.719,2.719,0,0,0,683.3,38.49a2.774,2.774,0,0,0,2.762,3" transform="translate(-330.586 51.771)" fill="#fff"/>
    <path id="Path_53" data-name="Path 53" d="M726.606,34.862a3.726,3.726,0,0,1-3.207-1.613v1.409h-2.28v-13.4h2.28v5.413a3.8,3.8,0,0,1,3.189-1.594,4.561,4.561,0,0,1,4.616,4.857,4.612,4.612,0,0,1-4.6,4.931m-.408-7.879a2.808,2.808,0,0,0-2.836,3.059,2.692,2.692,0,0,0,2.781,2.911,2.774,2.774,0,0,0,2.762-3,2.719,2.719,0,0,0-2.706-2.966" transform="translate(-358.313 60.312)" fill="#fff"/>
    <rect id="Rectangle_3" data-name="Rectangle 3" width="2.28" height="13.403" transform="translate(374.682 81.567)" fill="#fff"/>
    <path id="Path_54" data-name="Path 54" d="M782.112,41.6a5.411,5.411,0,0,1-4.245,1.8c-3.374,0-5.395-2.188-5.395-4.857a4.943,4.943,0,0,1,5.135-4.931c2.54,0,4.931,1.594,4.931,5.209h-7.786c0,1.483,1.205,2.651,3.225,2.651a4.008,4.008,0,0,0,2.836-1.149Zm-7.248-4.319H780.2a2.489,2.489,0,0,0-2.6-1.854,2.72,2.72,0,0,0-2.743,1.854" transform="translate(-393.799 51.771)" fill="#fff"/>
    <path id="Path_55" data-name="Path 55" d="M834.189,28.938a3.219,3.219,0,0,1,2.929,3.133c0,2.132-1.8,3.541-4.468,3.541h-5.339V22.636h4.764c2.54,0,4.43,1.3,4.43,3.448a2.973,2.973,0,0,1-2.317,2.855m-2.892-.7c2.151,0,2.781-1.038,2.781-2.021,0-1.112-.945-1.668-2-1.668h-2.392v3.689Zm-1.613,1.724v3.763h2.966a1.809,1.809,0,0,0,2.039-1.706c0-1.038-.667-2.058-3.04-2.058Z" transform="translate(-431.693 59.358)" fill="#fff"/>
    <rect id="Rectangle_4" data-name="Rectangle 4" width="2.28" height="13.403" transform="translate(407.385 81.567)" fill="#fff"/>
    <path id="Path_56" data-name="Path 56" d="M888.749,43.655h-2.28V42.079a3.134,3.134,0,0,1-3.021,1.78c-2.336,0-3.485-1.687-3.485-4.394v-5.19h2.28v5.172c0,1.52.593,2.41,1.817,2.41,1.057,0,2.41-.871,2.41-3.522v-4.06h2.28Z" transform="translate(-468.076 51.315)" fill="#fff"/>
    <path id="Path_57" data-name="Path 57" d="M923.621,41.6a5.412,5.412,0,0,1-4.245,1.8c-3.374,0-5.395-2.188-5.395-4.857a4.943,4.943,0,0,1,5.135-4.931c2.54,0,4.931,1.594,4.931,5.209h-7.786c0,1.483,1.2,2.651,3.225,2.651a4.008,4.008,0,0,0,2.836-1.149Zm-7.248-4.319h5.339a2.489,2.489,0,0,0-2.6-1.854,2.719,2.719,0,0,0-2.743,1.854" transform="translate(-491.584 51.771)" fill="#fff"/>
    <path id="Path_58" data-name="Path 58" d="M472.775,107.612V94.636h8.434v1.909h-6.062v3.763h5.283V102.2h-5.283v3.522h6.062v1.891Z" transform="translate(-186.699 9.604)" fill="#fff"/>
    <path id="Path_59" data-name="Path 59" d="M508.693,105.615a5.947,5.947,0,0,1,3.615,1.261l-1.057,1.631a3.933,3.933,0,0,0-2.447-.852,2.864,2.864,0,1,0,0,5.71,4.059,4.059,0,0,0,2.447-.853l1.057,1.613a5.871,5.871,0,0,1-3.615,1.279c-3.263,0-5.283-2.113-5.283-4.838,0-2.781,1.965-4.95,5.283-4.95" transform="translate(-207.869 2.017)" fill="#fff"/>
    <path id="Path_60" data-name="Path 60" d="M539.185,105.615a4.9,4.9,0,1,1-5.079,4.894,5.055,5.055,0,0,1,5.079-4.894m0,7.841a2.952,2.952,0,1,0-2.78-2.948,2.832,2.832,0,0,0,2.78,2.948" transform="translate(-229.082 2.017)" fill="#fff"/>
    <path id="Path_61" data-name="Path 61" d="M572.542,105.819h2.28v1.576a3.16,3.16,0,0,1,3.04-1.78c2.336,0,3.466,1.687,3.466,4.393v5.19h-2.28v-5.172c0-1.631-.686-2.484-1.817-2.484-1.335,0-2.41,1-2.41,2.966v4.69h-2.28Z" transform="translate(-255.641 2.017)" fill="#fff"/>
    <path id="Path_62" data-name="Path 62" d="M611.083,105.615A4.9,4.9,0,1,1,606,110.509a5.055,5.055,0,0,1,5.079-4.894m0,7.841a2.952,2.952,0,1,0-2.78-2.948,2.832,2.832,0,0,0,2.78,2.948" transform="translate(-278.764 2.017)" fill="#fff"/>
    <path id="Path_63" data-name="Path 63" d="M650.576,110.028c0-1.631-.649-2.484-1.743-2.484-1.038,0-2.057.8-2.113,2.855v4.8h-2.28v-9.38h2.28V107.4a2.923,2.923,0,0,1,2.762-1.779,3.042,3.042,0,0,1,2.929,1.761,3.15,3.15,0,0,1,3.077-1.761c2.429,0,3.486,1.687,3.486,4.393V115.2h-2.28v-5.172c0-1.631-.649-2.484-1.743-2.484-1.038,0-2.058.8-2.113,2.855v4.8h-2.262Z" transform="translate(-305.324 2.017)" fill="#fff"/>
    <path id="Path_64" data-name="Path 64" d="M701.149,106.275h2.558L697.886,119.9h-2.243l1.909-4.8-3.985-8.824h2.577l2.558,6.432Z" transform="translate(-339.273 1.561)" fill="#fff"/>
    <path id="Path_65" data-name="Path 65" d="M747.806,107.612V94.636h5.45a3.938,3.938,0,0,1,4.06,4.171,3.871,3.871,0,0,1-4.06,4.06h-3.077v4.746Zm5.079-6.618a2.237,2.237,0,0,0,0-4.449h-2.707v4.449Z" transform="translate(-376.754 9.604)" fill="#fff"/>
    <path id="Path_66" data-name="Path 66" d="M790.986,105.819v9.38h-2.28V113.79A3.725,3.725,0,0,1,785.5,115.4a4.612,4.612,0,0,1-4.6-4.931,4.561,4.561,0,0,1,4.616-4.857,3.8,3.8,0,0,1,3.188,1.594v-1.39Zm-5.024,7.675a2.706,2.706,0,0,0,2.8-2.911,2.822,2.822,0,0,0-2.855-3.059,2.719,2.719,0,0,0-2.706,2.966,2.774,2.774,0,0,0,2.762,3" transform="translate(-399.623 2.017)" fill="#fff"/>
    <path id="Path_67" data-name="Path 67" d="M823.3,107.9a2.547,2.547,0,0,1,3.336-2.15v2.243a3.364,3.364,0,0,0-1.075-.186c-.834,0-2.225.463-2.225,3.059V115.2h-2.28v-9.38H823.3Z" transform="translate(-427.369 2.017)" fill="#fff"/>
    <path id="Path_68" data-name="Path 68" d="M845.161,100.678h2.8v1.743h-2.8v4.912c0,.574.241,1.02.908,1.02a.9.9,0,0,0,.927-.964,2.288,2.288,0,0,0-.129-.779h1.872a2.965,2.965,0,0,1,.2,1.057c0,1.372-.945,2.6-2.966,2.6-1.557,0-3.1-.668-3.1-3.244v-4.6h-1.464v-1.743h1.575l.408-2.5h1.761Z" transform="translate(-441.441 7.159)" fill="#fff"/>
    <path id="Path_69" data-name="Path 69" d="M870.2,105.819h2.28v1.576a3.16,3.16,0,0,1,3.04-1.78c2.336,0,3.466,1.687,3.466,4.393v5.19H876.7v-5.172c0-1.631-.686-2.484-1.817-2.484-1.335,0-2.41,1-2.41,2.966v4.69H870.2Z" transform="translate(-461.33 2.017)" fill="#fff"/>
    <path id="Path_70" data-name="Path 70" d="M913.426,113.6a5.411,5.411,0,0,1-4.245,1.8c-3.374,0-5.395-2.188-5.395-4.857a4.943,4.943,0,0,1,5.135-4.931c2.54,0,4.931,1.594,4.931,5.209h-7.786c0,1.483,1.2,2.651,3.225,2.651a4.008,4.008,0,0,0,2.836-1.149Zm-7.248-4.319h5.339a2.489,2.489,0,0,0-2.6-1.854,2.719,2.719,0,0,0-2.743,1.854" transform="translate(-484.539 2.017)" fill="#fff"/>
    <path id="Path_71" data-name="Path 71" d="M943.883,107.9a2.548,2.548,0,0,1,3.337-2.15v2.243a3.364,3.364,0,0,0-1.075-.186c-.834,0-2.225.463-2.225,3.059V115.2h-2.28v-9.38h2.243Z" transform="translate(-510.697 2.017)" fill="#fff"/>
    <path id="Path_72" data-name="Path 72" d="M963.158,112.215a1.961,1.961,0,0,0,2,1.353c.668,0,1.409-.241,1.409-.983,0-.482-.445-.76-1.02-1l-1.372-.519c-1.872-.7-2.354-1.761-2.354-2.614,0-1.742,1.483-2.836,3.429-2.836a3.227,3.227,0,0,1,3.281,2.095l-1.835.667a1.412,1.412,0,0,0-1.427-.964,1.1,1.1,0,0,0-1.224.983c0,.519.463.779.982.964l1.39.5c2,.667,2.391,1.872,2.391,2.688,0,1.854-1.724,2.855-3.67,2.855a3.676,3.676,0,0,1-3.782-2.429Z" transform="translate(-524.324 2.017)" fill="#fff"/>
    <path id="Path_73" data-name="Path 73" d="M990.917,93.256h2.28v5.6a3.134,3.134,0,0,1,3.022-1.78c2.336,0,3.485,1.687,3.485,4.393v5.191h-2.28v-5.172c0-1.632-.7-2.484-1.835-2.484-1.112,0-2.391.834-2.391,2.966v4.69h-2.28Z" transform="translate(-544.75 10.558)" fill="#fff"/>
    <rect id="Rectangle_5" data-name="Rectangle 5" width="2.28" height="9.38" transform="translate(457.148 107.836)" fill="#fff"/>
    <path id="Path_74" data-name="Path 74" d="M1041.346,119.444V105.819h2.28v1.409a3.726,3.726,0,0,1,3.207-1.613,4.612,4.612,0,0,1,4.6,4.931,4.562,4.562,0,0,1-4.616,4.857,3.8,3.8,0,0,1-3.189-1.594v5.635Zm5.024-11.92a2.706,2.706,0,0,0-2.8,2.911,2.822,2.822,0,0,0,2.855,3.059,2.719,2.719,0,0,0,2.706-2.966,2.774,2.774,0,0,0-2.762-3" transform="translate(-579.598 2.017)" fill="#fff"/>
    <path id="Path_75" data-name="Path 75" d="M1015.09,94.047l5.793,1.448V92.6Z" transform="translate(-561.453 11.012)" fill="#ffd100"/>
    <rect id="Rectangle_6" data-name="Rectangle 6" width="331.833" height="48.409" transform="translate(140 75)" fill="none"/>
  </g>
</svg>
